<svg width="26" height="24" viewBox="0 0 26 24" fill="none" xmlns="http://www.w3.org/2000/svg">
<path fill-rule="evenodd" clip-rule="evenodd" d="M13.081 0.600006H14.9031C15.3877 0.600006 15.7806 0.9561 15.7806 1.39536C15.7806 1.83461 15.3877 2.1907 14.9031 2.1907H13.1482C10.3658 2.1907 8.36729 2.19239 6.84638 2.37774C5.35071 2.56001 4.44901 2.90667 3.78255 3.51077C3.11608 4.11487 2.73364 4.93219 2.53255 6.2879C2.32807 7.66648 2.32621 9.47799 2.32621 12C2.32621 14.522 2.32807 16.3335 2.53255 17.7121C2.73364 19.0678 3.11608 19.8851 3.78255 20.4892C4.44901 21.0934 5.35071 21.4401 6.84638 21.6222C8.36729 21.8076 10.3658 21.8093 13.1482 21.8093C15.9306 21.8093 17.9291 21.8076 19.45 21.6222C20.9456 21.4401 21.8473 21.0934 22.5138 20.4892C23.1804 19.8851 23.5628 19.0678 23.7638 17.7121C23.9683 16.3335 23.9702 14.522 23.9702 12V10.4093C23.9702 9.97006 24.3631 9.61396 24.8476 9.61396C25.3322 9.61396 25.7251 9.97006 25.7251 10.4093V12.0609C25.7251 14.5089 25.7251 16.4272 25.5032 17.9241C25.2758 19.4561 24.8017 20.6652 23.7548 21.6141C22.7079 22.563 21.3741 22.9928 19.6839 23.1988C18.0325 23.4 15.9161 23.4 13.2154 23.4H13.081C10.3804 23.4 8.2639 23.4 6.61255 23.1988C4.92228 22.9928 3.58852 22.563 2.54164 21.6141C1.49476 20.6652 1.02054 19.4561 0.793286 17.9241C0.571266 16.4272 0.571278 14.5089 0.571289 12.0609V11.9391C0.571278 9.49119 0.571266 7.57277 0.793286 6.07594C1.02054 4.54384 1.49476 3.33489 2.54164 2.38598C3.58852 1.43706 4.92228 1.00721 6.61255 0.801229C8.2639 0.599985 10.3804 0.599996 13.081 0.600006ZM18.7294 1.68796C20.3298 0.237358 22.9245 0.237358 24.5249 1.68796C26.1252 3.13855 26.1252 5.49043 24.5249 6.94103L16.7469 13.9911C16.3125 14.3849 16.0404 14.6316 15.7368 14.8463C15.3792 15.0991 14.9921 15.3159 14.5827 15.4928C14.2351 15.6429 13.8699 15.7532 13.2872 15.9292L9.88903 16.956C9.26165 17.1455 8.56997 16.9976 8.10235 16.5737C7.63474 16.1498 7.47145 15.5229 7.68058 14.9541L8.81328 11.874C9.00752 11.3458 9.12919 11.0148 9.29487 10.6998C9.49 10.3286 9.72916 9.97781 10.0081 9.65364C10.245 9.3784 10.5171 9.13176 10.9515 8.73802L18.7294 1.68796ZM23.2839 2.81275C22.3689 1.98336 20.8854 1.98336 19.9704 2.81275L19.5298 3.21214C19.5563 3.3138 19.5934 3.43492 19.6451 3.57001C19.8128 4.00804 20.1301 4.58493 20.7294 5.12818C21.3288 5.67144 21.9653 5.95902 22.4484 6.111C22.5975 6.15787 22.7311 6.19155 22.8433 6.21563L23.2839 5.81623C24.1989 4.98684 24.1989 3.64213 23.2839 2.81275ZM21.4608 7.46873C20.8572 7.23342 20.1541 6.85618 19.4885 6.25297C18.823 5.64978 18.4069 5.01241 18.1473 4.46525L12.2327 9.82633C11.7454 10.2681 11.5543 10.4432 11.3919 10.6319C11.1913 10.865 11.0194 11.1173 10.8791 11.3841C10.7655 11.6002 10.6781 11.8334 10.4601 12.426L9.95484 13.8L11.1623 14.8945L12.6782 14.4365C13.332 14.239 13.5893 14.1597 13.8277 14.0568C14.1221 13.9296 14.4004 13.7737 14.6575 13.592C14.8657 13.4448 15.059 13.2715 15.5462 12.8298L21.4608 7.46873Z" fill="#1C274C"/>
</svg>
