
<svg width="6" height="27" viewBox="0 0 6 27" fill="none" xmlns="http://www.w3.org/2000/svg">
<path d="M2.91667 20.4167C4.52754 20.4167 5.83333 21.7225 5.83333 23.3333C5.83333 24.9442 4.52754 26.25 2.91667 26.25C1.30579 26.25 0 24.9442 0 23.3333C0 21.7225 1.30579 20.4167 2.91667 20.4167Z" fill="#25004B"/>
<path d="M2.91667 10.2083C4.52754 10.2083 5.83333 11.5141 5.83333 13.125C5.83333 14.7358 4.52754 16.0416 2.91667 16.0416C1.30579 16.0416 0 14.7358 0 13.125C0 11.5141 1.30579 10.2083 2.91667 10.2083Z" fill="#25004B"/>
<path d="M2.91667 4.1008e-05C4.52754 4.1008e-05 5.83333 1.30583 5.83333 2.91671C5.83333 4.52758 4.52754 5.83337 2.91667 5.83337C1.30579 5.83337 0 4.52758 0 2.91671C0 1.30583 1.30579 4.1008e-05 2.91667 4.1008e-05Z" fill="#25004B"/>
</svg>
