<svg width="86" height="86" viewBox="0 0 86 86" fill="none" xmlns="http://www.w3.org/2000/svg">
<path d="M43 0C19.2461 0 0 19.2592 0 43C0 66.7408 19.2592 86 43 86C66.7539 86 86 66.7408 86 43C86 19.2592 66.7408 0 43 0ZM43 76.4619C24.5509 76.4619 9.5512 61.4622 9.5512 43.0131C9.5512 24.564 24.5509 9.56427 43 9.56427C61.4491 9.56427 76.4488 24.564 76.4488 43.0131C76.4488 61.4622 61.436 76.4619 43 76.4619Z" fill="#0F1F3C"/>
<path d="M47.7957 23.8715H38.2314V44.9599L53.9759 60.7044L60.731 53.9493L47.7957 41.014V23.8715Z" fill="#0F1F3C"/>
</svg>
