<svg width="85" height="85" viewBox="0 0 85 85" fill="none" xmlns="http://www.w3.org/2000/svg">
<path d="M74.1462 39.2434C74.0293 34.7942 74.0187 30.337 73.7743 25.8931C73.6973 24.5145 73.6309 23.1359 73.5751 21.7627C73.5193 20.3389 73.5645 18.9045 73.591 17.4808C73.6468 14.4952 73.6973 11.5148 73.6681 8.52922C73.6628 7.95016 73.4264 7.42953 73.0704 7.01781C72.9695 6.63266 72.8048 6.26875 72.5232 5.98188C72.1753 5.63922 71.5935 5.3125 71.0676 5.3125C71.0171 5.3125 70.9693 5.31516 70.9189 5.32047C66.621 5.865 62.2675 5.69234 57.9457 5.78266C53.5018 5.87297 49.0606 6.06687 44.6167 6.15453C42.3536 6.19969 40.0957 6.23687 37.8326 6.18109C35.5535 6.12 33.2904 6.12531 31.014 6.23688C28.7828 6.34844 26.5489 6.46531 24.3123 6.53703C22.0014 6.60875 19.6931 6.59281 17.3848 6.60875C16.0939 6.61406 14.8056 6.61937 13.5146 6.62469C12.3406 6.63 11.3631 7.60219 11.3631 8.78156C11.3631 9.13219 11.4746 9.45359 11.6314 9.75375C11.6314 12.2453 11.6818 14.7502 11.5331 17.2364C11.4667 18.3653 11.371 19.4942 11.3259 20.6231C11.286 21.7308 11.2701 22.8358 11.2489 23.9434C11.1718 28.5441 11.2542 33.1527 11.1931 37.7559C11.1373 42.322 11.2435 46.8855 11.2329 51.4463C11.2223 53.6775 11.2728 55.9167 11.2329 58.1533C11.1878 60.4111 11.132 62.6742 11.1001 64.932C11.055 68.765 10.7176 72.5953 10.784 76.4309C10.7893 76.7125 10.861 76.9755 10.954 77.2305C10.9434 77.3181 10.9009 77.3952 10.9009 77.4855C10.9009 78.6914 11.8864 79.6264 13.0737 79.6556C17.6398 79.7778 22.2032 79.5069 26.7746 79.4352C28.8943 79.4059 31.0167 79.4352 33.1364 79.4352C35.272 79.4352 37.4076 79.4352 39.5379 79.4405C43.9871 79.4564 48.4337 79.4511 52.8776 79.4458C57.0373 79.4458 61.2023 79.6609 65.362 79.6184C66.2412 79.6078 67.1204 79.5494 67.997 79.4803C68.8656 79.4113 69.7421 79.4059 70.6107 79.3794C71.2881 79.3608 71.8831 79.0394 72.2975 78.5559C72.9217 78.3381 73.4556 77.868 73.6282 77.1933C73.8939 76.1547 73.8407 75.0178 73.8885 73.95C73.9231 72.9725 73.9496 71.9923 73.9762 71.0148C74.0028 70.0134 74.0665 69.012 74.109 68.0159C74.1435 66.9933 74.1435 65.9706 74.1489 64.948C74.1781 60.6395 74.2046 56.3338 74.21 52.0253C74.2179 47.7673 74.2525 43.5067 74.1462 39.2434ZM67.734 75.0337C66.9743 75.0709 66.2146 75.0842 65.4523 75.1002C65.4682 74.5423 65.4975 73.9872 65.5187 73.432C65.5639 72.1756 65.5479 70.9192 65.5453 69.6628C65.5453 66.9933 65.5904 64.3291 65.5957 61.6595C65.601 60.5253 64.6501 59.585 63.5212 59.585C62.3976 59.585 61.4467 60.5253 61.452 61.6595C61.4573 64.3291 61.5078 66.9933 61.4785 69.6628C61.4626 70.9192 61.444 72.1756 61.3723 73.432C61.3404 74.0084 61.3059 74.5875 61.2846 75.1666C60.4214 75.1745 59.5607 75.1958 58.6948 75.2011C54.3173 75.2277 49.9318 75.3498 45.5543 75.3631C41.1768 75.3791 36.7914 75.4163 32.4139 75.3498C30.3393 75.3233 28.2595 75.3073 26.185 75.3073C24.0892 75.3073 21.9987 75.395 19.9082 75.4003C18.4818 75.4056 17.0581 75.3684 15.6343 75.3445C15.6689 73.5144 15.6609 71.6789 15.7379 69.8487C15.7884 68.7145 15.8282 67.5803 15.8256 66.4461C15.815 65.4394 15.799 64.438 15.8043 63.4312C15.8256 58.9103 15.8601 54.3841 15.8548 49.8631C15.8495 45.2917 15.7725 40.7203 15.6981 36.1516C15.621 31.5562 15.5759 26.9477 15.6821 22.355C15.7698 18.522 15.9743 14.697 16.046 10.8667C20.0809 10.7764 24.1104 10.617 28.14 10.4338C30.3473 10.3302 32.56 10.2505 34.7673 10.2292C35.8696 10.2239 36.98 10.2584 38.0876 10.2956C39.19 10.3355 40.3003 10.3727 41.4079 10.362C45.9448 10.3302 50.487 10.3063 55.0212 10.1947C56.9098 10.1469 58.7931 10.123 60.679 10.0938C60.5276 13.9427 60.4267 17.7969 60.3018 21.6484C60.1743 25.7337 60.169 29.8217 60.3789 33.9044C60.4665 35.5672 60.5621 37.23 60.695 38.8928C60.8225 40.5317 60.8835 42.1733 60.9553 43.8175C61.0987 47.1909 61.112 50.5617 61.1439 53.9378C61.1492 55.0614 62.0735 55.9964 63.2025 55.9964C64.3207 55.9964 65.277 55.0614 65.2664 53.9378C65.2451 51.7756 65.1203 49.6241 65.0884 47.4672C65.0565 45.3475 65.0167 43.2252 64.945 41.1055C64.8732 39.0309 64.6714 36.9564 64.5625 34.8819C64.4562 32.8923 64.3579 30.9028 64.3446 28.9106C64.3234 25.6142 64.3792 22.3205 64.4323 19.0241C64.4748 16.0358 64.6289 13.0448 64.7856 10.0592C65.864 10.0539 66.9425 10.038 68.0209 9.99281C68.3503 9.97953 68.6796 9.97156 69.009 9.96359C69.0542 11.9345 69.1073 13.9081 69.094 15.8791C69.0887 18.1369 68.9878 20.4 69.1046 22.6525C69.2268 24.9209 69.3889 27.1841 69.4765 29.4525C69.5642 31.6652 69.5774 33.8805 69.6651 36.0931C69.9865 44.702 69.9812 53.3109 70.0556 61.9278C70.0768 64.3795 70.0954 66.8259 69.9998 69.2723C69.9546 70.4889 69.9121 71.7081 69.8484 72.9194C69.8112 73.5914 69.7687 74.2661 69.7289 74.9408C69.0621 74.97 68.3981 74.9966 67.734 75.0337ZM30.3075 26.7033C30.3075 25.508 31.3035 24.5066 32.4989 24.5119C35.0568 24.5172 37.6148 24.5517 40.1728 24.573C41.1025 24.5836 42.0348 24.5783 42.9698 24.5677C44.3165 24.5623 45.6659 24.5464 47.0126 24.5836C48.1256 24.6075 49.0526 25.4894 49.0526 26.6183C49.0526 27.7578 48.1282 28.6211 47.0126 28.6583C44.715 28.7273 42.4093 28.8203 40.1064 28.8363C37.575 28.8548 35.0356 28.892 32.4989 28.8973C31.3035 28.9 30.3075 27.8959 30.3075 26.7033ZM53.4301 34.17C53.4301 34.7145 53.2123 35.2378 52.8298 35.623C52.4181 36.0294 51.9346 36.1808 51.3742 36.2233C50.6225 36.2844 49.8575 36.2525 49.1004 36.2684C48.2212 36.2844 47.342 36.3056 46.4548 36.2844C44.7415 36.2525 43.0282 36.2339 41.3123 36.2286C37.559 36.202 33.811 36.1064 30.0578 36.125C28.8731 36.1303 27.885 35.1342 27.885 33.9548C27.885 32.7755 28.8704 31.7847 30.0578 31.79C31.9995 31.7953 33.9332 31.8909 35.875 31.9892C37.7051 32.0742 39.5353 32.1167 41.3734 32.1167C42.0401 32.1167 42.7121 32.1167 43.3815 32.1194C44.4493 32.1194 45.5225 32.1247 46.5956 32.1114C47.3393 32.1061 48.0857 32.1114 48.8321 32.1167C49.6768 32.1247 50.5215 32.1353 51.3689 32.1167C52.4925 32.0955 53.4301 33.065 53.4301 34.17ZM50.3887 42.1494C50.3887 42.6992 50.1656 43.2331 49.7778 43.6236C49.4218 43.9742 48.8268 44.285 48.3089 44.2292C42.8582 43.6687 37.3757 43.7564 31.9039 43.783C30.7909 43.7856 29.8639 42.8506 29.8639 41.743C29.8639 40.638 30.7856 39.703 31.8932 39.703H31.9012C34.7434 39.7189 37.5882 39.7933 40.4304 39.8092C41.7931 39.8145 43.161 39.7986 44.5237 39.8703C45.7854 39.9367 47.0471 40.0084 48.3062 40.0695C49.4378 40.1306 50.3887 40.9753 50.3887 42.1494Z" fill="#111918"/>
</svg>
