<svg width="85" height="85" viewBox="0 0 85 85" fill="none" xmlns="http://www.w3.org/2000/svg">
<path fill-rule="evenodd" clip-rule="evenodd" d="M51 42.5021C51 47.3775 47.1963 51.3258 42.5 51.3258C37.8037 51.3258 34 47.3775 34 42.5021C34 37.6266 37.8037 33.6783 42.5 33.6783C47.1963 33.6783 51 37.6266 51 42.5021ZM42.5 59.1763C29.7967 59.1763 17.8288 52.9015 10.1958 42.5021C17.8288 32.1026 29.7967 25.8237 42.5 25.8237C55.2033 25.8237 67.1712 32.1026 74.8042 42.5021C67.1712 52.9015 55.2033 59.1763 42.5 59.1763ZM42.5 17C24.327 17 8.49575 27.2714 0 42.5021C8.49575 57.7328 24.327 68 42.5 68C60.673 68 76.5042 57.7328 85 42.5021C76.5042 27.2714 60.673 17 42.5 17Z" fill="black"/>
</svg>
